<svg xmlns="http://www.w3.org/2000/svg" xmlns:xlink="http://www.w3.org/1999/xlink" viewBox="0 0 211 211"><defs><style>.cls-1{fill:url(#Degradado_sin_nombre_9);}.cls-2{fill:url(#Degradado_sin_nombre_9-2);}.cls-3{fill:url(#Degradado_sin_nombre_9-3);}.cls-4{fill:url(#Degradado_sin_nombre_9-4);}</style><linearGradient id="Degradado_sin_nombre_9" x1="151.2" y1="192.26" x2="151.2" y2="184.4" gradientUnits="userSpaceOnUse"><stop offset="0" stop-color="#ff9700"/><stop offset="1" stop-color="#ff6219"/></linearGradient><linearGradient id="Degradado_sin_nombre_9-2" x1="103.42" y1="205" x2="103.42" y2="5.84" xlink:href="#Degradado_sin_nombre_9"/><linearGradient id="Degradado_sin_nombre_9-3" x1="151.76" y1="170.36" x2="151.76" y2="129.81" xlink:href="#Degradado_sin_nombre_9"/><linearGradient id="Degradado_sin_nombre_9-4" x1="107.46" y1="59.63" x2="107.46" y2="51.76" xlink:href="#Degradado_sin_nombre_9"/></defs><title>logo</title><g id="recursos"><path class="cls-1" d="M149.32,184.92l-.15.09a3.89,3.89,0,0,0,2,7.25,4,4,0,0,0,2-.52l.15-.09a3.89,3.89,0,0,0-3.91-6.73Z"/><path class="cls-2" d="M189.66,55.66a99.55,99.55,0,0,0-182.38,24A99.57,99.57,0,0,0,139.05,198.42a3.89,3.89,0,1,0-2.79-7.26A91.16,91.16,0,0,1,48.51,179.1L52,160.91l1.68-.55a12.11,12.11,0,0,0,7.77-15.24l-1.23-3.8a4.24,4.24,0,0,1,0-2.68A12.11,12.11,0,0,0,51,123l-8.78-1.71L25.32,108.4a3.86,3.86,0,0,0-3.55-.6L11.85,111a91.78,91.78,0,0,1,0-10.62c.39.36.64.61.8.77a3.56,3.56,0,0,0,.72.88,3.92,3.92,0,0,0,3.08,1.07,56.53,56.53,0,0,0,7-.79c3.28-.49,6.55-1,6.58-1a3.9,3.9,0,0,0,2.57-6l-4.77-7,6.83-4.89a3.64,3.64,0,0,0,1.11-1.23L46.32,63.67l4.27-4.58a16.41,16.41,0,0,0,3.17-17.42,17.85,17.85,0,0,0-7.08-8.35,91.65,91.65,0,0,1,55.7-19.63L95.43,22.4l-25.75,9a3.87,3.87,0,0,0-2.31,2.19l-7.2,17.44a3.88,3.88,0,0,0,.43,3.74L71.11,69.52a36.63,36.63,0,0,0-4.72,5.85c-.77,1.09-1.49,2.12-2,2.69l-1.3,1.48a36.38,36.38,0,0,0-6.26,8.68,23.2,23.2,0,0,0,1.92,23.44,21.85,21.85,0,0,0,20.62,8.84,30.77,30.77,0,0,0,3.8-.76c3.33-.83,4.39-.91,5.46.09.52.49.57.58.55,2.23a15.68,15.68,0,0,0,.35,3.86,12.27,12.27,0,0,0,3.29,5.37,8.62,8.62,0,0,1,1.41,1.8c1.21,2.9.69,4.51-.47,8q-.15.45-.3.93c-1.76,5.44.69,10.84,2.85,15.6.7,1.55,1.37,3,1.8,4.3,3.5,10.38,6.12,12.76,8.22,13.71a8.19,8.19,0,0,0,3.4.72c5.61,0,11.46-5.2,14.15-8.5a12,12,0,0,0,2.4-5.67,5.94,5.94,0,0,1,.5-1.73,10.36,10.36,0,0,1,1.28-1.65,13.46,13.46,0,0,0,3.18-5.28,8.56,8.56,0,0,1,2.64-4.14l.86-.92c5.18-5.64,3.84-9.95,2.43-14.51-1.19-3.83.89-6.29,5.92-11a42.48,42.48,0,0,0,6.18-6.65c.76-1.1,3.08-4.46,1.64-7.79s-5-3.81-7.85-4.25a13,13,0,0,1-3.4-.8c-2.41-1.57-3.88-4.86-5.3-8-.29-.63-.57-1.26-.85-1.86-.5-1.08-1-2.39-1.54-3.77-1.42-3.67-3-7.82-5.75-10.71-2.46-2.6-7.08-3.86-11.17-5-1.37-.37-2.66-.72-3.52-1a3.94,3.94,0,0,0-2.23-.14,10.11,10.11,0,0,0-4.15,1.72,4.78,4.78,0,0,0-1.38,1.86,43.35,43.35,0,0,1-4.59-2.79l-.08,0A5.51,5.51,0,0,0,98.77,70c-2.18-4.6-9.39-4.24-10.81-4.12-.81.07-1.83.1-2.92.14-1.69.06-3.57.13-5.43.34l.1-.27A9.94,9.94,0,0,1,89,59.54h2.22a3.89,3.89,0,0,0,0-7.78H89A17.74,17.74,0,0,0,74,60.16L68.19,52l5.7-13.83,25.17-8.83a3.92,3.92,0,0,0,1.76-1.24l11.19-14a91.73,91.73,0,0,1,70.91,45.46,90.59,90.59,0,0,1,9.17,22.26l-1.65,1.47A10.41,10.41,0,0,0,187,90.84v.09l-2.69-7.38a9.66,9.66,0,0,0-1.75-3l-4.79-5.61a9.78,9.78,0,0,0-7.43-3.42h-5.86a5.64,5.64,0,0,0-4.69,8.76l.6.89a43.26,43.26,0,0,1-12.85,7.63l-8-15.4V70a3.87,3.87,0,0,0-1.2-2.81L131,60.22a3.88,3.88,0,0,0-1.4-.85l-6.52-2.29a3.89,3.89,0,0,0-2.57,7.34l5.72,2,5.43,5.18v2.73a3.9,3.9,0,0,0,.45,1.8l10.06,19.28a3.89,3.89,0,0,0,4.8,1.85l2.93-1.08a50.87,50.87,0,0,0,18.25-11.68,3.89,3.89,0,0,0,.48-4.91l-.2-.31h1.85a2,2,0,0,1,1.51.69l4.79,5.61a2,2,0,0,1,.36.61l5.29,14.55a3.85,3.85,0,0,0,2.81,2.46,3.44,3.44,0,0,0,.84.1,3.91,3.91,0,0,0,2.75-1.14l2.52-2.52a12.25,12.25,0,0,0,3.22-5.85,92.12,92.12,0,0,1-34.2,83.77,3.89,3.89,0,1,0,4.8,6.12,99.59,99.59,0,0,0,24.65-128ZM22.24,115.82l16,12.2a3.9,3.9,0,0,0,1.61.72l9.67,1.89a4.32,4.32,0,0,1,3.28,5.59,12,12,0,0,0,0,7.51l1.23,3.79A4.33,4.33,0,0,1,51.27,153l-3.86,1.25a3.9,3.9,0,0,0-2.62,3l-3.11,16.24A92.74,92.74,0,0,1,24,151.33a91.31,91.31,0,0,1-11.3-32.4ZM12.08,99.38a4,4,0,0,0,.06.5A3.61,3.61,0,0,1,12.08,99.38ZM46.57,44.63a8.6,8.6,0,0,1-1.67,9.15l-4.57,4.91a3.71,3.71,0,0,0-.53.72L29.41,77.55l-9.24,6.6a3.9,3.9,0,0,0-1,5.36l3.45,5.06c-2,.3-3.77.54-5,.67L17,94.57c-.92-.86-2.2-2-4.12-3.68a91.93,91.93,0,0,1,27.4-52A10.12,10.12,0,0,1,46.57,44.63ZM85.32,73.82c1.18,0,2.29-.08,3.29-.17a11.38,11.38,0,0,1,1.65,0,4,4,0,0,0-.22,2,3.93,3.93,0,0,0,2,2.83c.73.39,1.75,1.07,2.82,1.78,3,2,6.49,4.33,9.73,4.53a6.44,6.44,0,0,0,5.28-2.2l.16-.16a4.32,4.32,0,0,0,1-1.28l1.94.54c2.3.62,6.59,1.78,7.54,2.79,1.68,1.78,3,5.17,4.15,8.17.58,1.51,1.14,2.94,1.76,4.27.26.56.52,1.15.79,1.74,1.79,4,3.83,8.54,8.14,11.36a16.2,16.2,0,0,0,6.48,2l.84.13a37.33,37.33,0,0,1-4.93,5.18c-4.82,4.48-10.81,10.06-8.05,19,1.3,4.2,1.36,4.66-.73,6.93l-.8.86a16,16,0,0,0-4.39,7.12,6.07,6.07,0,0,1-1.58,2.47,17.53,17.53,0,0,0-2.18,2.88,12.58,12.58,0,0,0-1.4,4.13,4.64,4.64,0,0,1-.82,2.28,22.22,22.22,0,0,1-4.91,4.35,6.25,6.25,0,0,1-3.26,1.29c-.41-.44-1.91-2.39-4.19-9.13-.56-1.66-1.33-3.38-2.08-5-1.66-3.65-3.37-7.42-2.54-10,.1-.31.19-.6.29-.89,1.33-4.06,2.59-7.89.26-13.47a14.21,14.21,0,0,0-2.83-4,7,7,0,0,1-1.49-2,9.07,9.07,0,0,1-.13-2,9.62,9.62,0,0,0-3-8c-4.31-4-9.33-2.79-12.65-2a24.93,24.93,0,0,1-2.84.59,14,14,0,0,1-13.39-5.66,15.42,15.42,0,0,1-1.21-15.57,29.85,29.85,0,0,1,5-6.84c.45-.51.91-1,1.36-1.55a41.2,41.2,0,0,0,2.48-3.31c1-1.5,3-4.28,3.87-4.81C78.35,74.06,82.38,73.92,85.32,73.82Z"/><path class="cls-3" d="M149.34,170.27c4-.65,6.95-4.77,9.39-13l4.58-15.42a3.94,3.94,0,0,0,0-2.1l-1.87-7.06a3.89,3.89,0,0,0-7.18-.85c-.43.78-.81,1.62-1.18,2.42a16.9,16.9,0,0,1-2,3.53,8.45,8.45,0,0,1-2.28,1.35c-2.24,1.08-5.31,2.56-6.48,6.3a11.48,11.48,0,0,0-.26,5.49,3.49,3.49,0,0,1-.09,2.29l0,.09c-1.24,2.9-3.55,8.31-.32,12.91,2.31,3.28,4.73,4.13,6.62,4.13A6.69,6.69,0,0,0,149.34,170.27Zm-1.28-8.51c-.74-1.06.37-3.67,1.1-5.39l0-.09a10.92,10.92,0,0,0,.64-6.48,4.14,4.14,0,0,1,0-2c.16-.49,1.07-1,2.44-1.62.61-.29,1.28-.62,2-1l-2.95,9.92c-1.24,4.19-2.34,6.14-3,7A3,3,0,0,1,148.06,161.76Z"/><path class="cls-4" d="M108.62,52A3.89,3.89,0,0,0,106,59.32l.27.09a3.83,3.83,0,0,0,1.28.22,3.89,3.89,0,0,0,1.29-7.56Z"/></g></svg>